<svg xmlns="http://www.w3.org/2000/svg" viewBox="0 0 208 208"><g fill="none" stroke-width="2"><path stroke="#020a03" stroke-opacity=".827" d="M113.44 31.23q-3.07-.36-6.13-1.04-2.93-.66-7.45.01" vector-effect="non-scaling-stroke"/><path stroke="#010502" stroke-opacity=".827" d="M99.86 30.2q-9.41 1.09-17.07 6.3" vector-effect="non-scaling-stroke"/><path stroke="#0a0f0a" stroke-opacity=".831" d="M136.75 41.04q-10.51-7.62-23.31-9.81" vector-effect="non-scaling-stroke"/><path stroke="#020a03" stroke-opacity=".827" d="m82.79 36.5-3.59 2.65M43.54 170q-.78.95-2.04.8a.4.39 6.3 0 0-.45.35l-.03.26a1.01 1 22.2 0 0 .39.92q.9.68 2.06.86a.98.98 0 0 1 .56.29q5.25 5.47 11.96 9.04.19.1.28.25.27.44.37.5 12.13 7 25.74 10.5" vector-effect="non-scaling-stroke"/><path stroke="#080f08" stroke-opacity=".831" d="m79.2 39.15-3.95 3.89M56.71 166q-1.59.75-3.27 1.28c-3.47 1.09-6.14 2.53-9.9 2.72" vector-effect="non-scaling-stroke"/><path stroke="#0e0f0f" stroke-opacity=".827" d="M136.75 41.04c6.59 5.42 11.5 13.98 10.43 22.86a.98.97-59.2 0 0 .17.69q2.01 2.88-.04 6.01a.99.94-30.8 0 0-.16.56l.06 11.23a1 1 0 0 0 .62.91c8.2 3.42.05 21.85-1.78 27.72q-1.18 3.8-4.63 4.23a1 1 0 0 0-.83.7q-2.16 7.02-4.13 12.87-1.54 4.57-3.51 7.1-2.43 3.12-1.9 6.55c.19 1.19 1.03 1.98 1.22 3.09a1.7 1.56 81.8 0 0 1.74 1.42q4.2-.5 4.32 3.6 0 .08.02.17l1 4.93a.98.97 13.9 0 0 .34.56q.5.42.56 1.15a1.02 1-75.8 0 0 .41.71q4.53 3.35 5.57 3.91 6.13 3.31 17.06 7.24 2.59.92 3.65 2.84" vector-effect="non-scaling-stroke"/><path stroke="#080f08" stroke-opacity=".831" d="M166.94 172.09c-3.12 1.74-5.49 4.45-7.98 6.1-8.18 5.43-14.29 9.27-25.21 13.27" vector-effect="non-scaling-stroke"/><path stroke="#0e0f0f" stroke-opacity=".827" d="M133.75 191.46c-6.04 1.69-13.38 4.2-19.42 3.77a.95.94 31.3 0 0-.59.14c-2.26 1.39-13.39.89-16.38.89-2.8-.01-5.27-1.41-8.5-1.02q-.17.03-.35-.02l-6.13-1.45M56.71 166l13.56-5.38a.99.98 87 0 0 .59-.66l3.21-11.57a.95.95 0 0 1 .38-.54q1.94-1.42 4.47-.76a1 .99 29.6 0 0 .95-.26q3.21-3.12 1.42-7.08" vector-effect="non-scaling-stroke"/><path stroke="#131112" stroke-opacity=".827" d="m81.29 139.75-.9-3.88c-.8-3.41-3.12-6.27-4.1-9.87" vector-effect="non-scaling-stroke"/><path stroke="#0e0f0f" stroke-opacity=".827" d="M76.29 126c-1.06-3.2-2.49-9.19-5.39-11.41-2.31-1.77-3.13-2.85-3.01-5.64a1.04 1.02 27.6 0 0-.21-.65q-.82-1.07-.81-2.34a1.03 1.01 26.6 0 0-.22-.63q-1.92-2.36-2.45-5.27c-.91-4.98-3.15-7.84-1.5-13.17.83-2.68 3.26-4.27 5.11-6.43a.98.92 68.7 0 0 .23-.57c.1-1.27-.74-2.12-.92-3.05q-.56-2.83-.28-5.7a1 .98 24.6 0 0-.32-.83c-.93-.86-.51-8.84-.49-10.52q.02-2.07.68-4.05 2.14-6.37 7.45-10.3.68-.5 1.09-2.4" vector-effect="non-scaling-stroke"/></g><path fill="#0b210e" fill-opacity=".514" d="M99.06 0h17.25l3.86.97q.13.03.26.03c5.84-.09 14.02 3.09 19.57 5.04-1.86.23-4.37 1.77-6.62.57a.52.51 32.2 0 0-.65.14q-.24.32-.77.25l-13.89-2.55Q106.68 3.37 95.25 4q.7-.63.39-.95-.33-.34.13-.44 2.43-.5.48-2.32L99.06 0Z"/><path fill="#000100" fill-opacity=".498" d="M96.25.29q1.95 1.82-.48 2.32-.46.1-.13.44.31.32-.39.95l-4.2-.01a.99.98 21.8 0 0-.71.3l-.41.41a1.02.98 21.8 0 1-.71.29l-4.33.02a1.01.99-66 0 0-.68.27q-1.66 1.56-4.04.91a.8.8 0 0 0-.98.55l-.08.29a.52.51-71.3 0 1-.68.34q-1.66-.62-2.56.53a1.01 1 22.3 0 1-.92.38l-1.92-.26a1.01 1 19.5 0 0-.98.46q-.5.79-1.54.51a1.05 1.03 36.4 0 0-.77.11l-3.38 2.02a1.03 1.02-53.2 0 1-.74.11q-.9-.21-1.27.5a.8.8 0 0 1-.81.42q-.99-.13-1.48.58a1.12 1.01 3 0 1-.42.34q-4.97 2.21-9.67 5c-1.24.73-3.24.95-4.14 2.76a1.02 1.01 3 0 1-.56.5q-2.05.73-3.39 2.46a.95.91 6.4 0 1-.42.32q-2.72 1.08-4.19 3.57a.99.97 7.7 0 1-.63.47c-2.74.63-5.99 5.12-8.07 7.18-2.14 2.12-9.32 10.61-9.55 11.99a1 1 0 0 1-.35.61q-1.9 1.55-2.41 4-.05.26-.23.46-2.79 3.14-4.07 7.14-.08.27-.3.4a.48.4-4.7 0 0-.19.19l-2.56 4.53q-.11.2-.12.43-.14 2.27-1.69 3.98a.98.96 70.9 0 0-.26.55l-.75 6.27a.41.4 84.5 0 1-.27.34l-.36.13a.51.51 0 0 0-.32.65q.51 1.43-.5 2.23a1.01 1 71.1 0 0-.38.79l-.01 3a1 1 0 0 1-.77.97c-1.57.38-.96 3.61-.81 4.56a1.06 1.03-32.7 0 1-.17.74c-1.48 2.08-.5 23.53-.48 27.62a.79.79 0 0 0 .65.78c.88.16.6 4.96.6 5.85a.21.21 0 0 0 .21.21h.28a.41.41 0 0 1 .41.42q-.05 3.06.63 6.05c.32 1.43 1.54 2.79 1.28 4.86a1.03.99-63.9 0 0 .26.82q1.06 1.1.59 2.68a.33.33 0 0 0 .3.42l.32.02a.65.63-5.3 0 1 .6.49q1.09 4.83 3.71 9.05a1.02 1.01-55.4 0 1 .13.71q-.13.66.45.86a.81.81 0 0 1 .53.86q-.11.79.62 1.05a1 .99 10.3 0 1 .66.95v.39a.99.99 0 0 0 .54.9q1.4.73 1.23 2.25a.64.63-84.2 0 0 .57.71q.58.06.44.67a.81.79-66.1 0 0 .32.85q.95.65 1.47 1.67.33.66.53.92l3.39 4.33q1.12 1.89 2.76 3.03.96.63 1 1.76a.99.97 22.2 0 0 .29.67l8.86 8.96a.52.51-20.7 0 0 .34.15l.44.02a1.02.97-19 0 1 .68.31l2.96 3.1a1 .99 61.1 0 0 .96.28q1.25-.31 1.24.79a.99.99 0 0 0 .45.85l4.78 3.11q-1.87.61-3.83.39a.81.8-77.8 0 0-.86.56l-.1.34q-5.44-3.73-10.26-8.2c-1.04-.96-4.07-2.87-5.41-4.74q-1.27-1.78-1.83-2.37C16.04 162.87 8.2 149.01 3.88 133.36q-1.13-4.11-2.25-8.23c-.41-1.51-.33-3.83-.88-5.52q-.42-1.27-.43-2.19-.15-13.69-.04-27.4a.97.95 67.8 0 1 .28-.68l.35-.37a.66.61 68.2 0 0 .17-.44q0-3.6.33-5.07 10.02-44.54 47.21-68C61.18 7.54 81.29-.37 96.25.29Z"/><path fill="#061908" fill-opacity=".655" d="M118.07 4.45q-5.83-.53-6.86 4.53-.43 2.16 1.66 1.39a1 1 0 0 1 1.35.95q-.04 2.29 1.43 4.02a.99.98-60.1 0 1 .22.83l-.39 2.03a1.02 1 27 0 0 .31.92l3.48 3.24a1 .99-27.3 0 0 .83.26l3.25-.49a1 .99-32.7 0 1 .7.15q2 1.32 1.56 3.69-1 5.35-6.86 3.75-3-.83-4.96-.39-1.36.3-.04.19 2.6-.22.71.95a1 .97 33.5 0 1-.7.13q-6.24-1.16-.32.63-3.07-.36-6.13-1.04-2.93-.66-7.45.01.82-2.15-.78-3.69c-1.75-1.69-8.94-1.02-11.49-1.05q-.72-.01-.24-.55.38-.42-.25-.43a.79.78 84.7 0 1-.77-.65l-.12-.62a.99.98 89.1 0 0-.81-.79q-1.61-.28-2.68.49-1.86 1.35-3.37 1.67a1.02 1-81.9 0 0-.67.51q-.89 1.67-2.54 1.48a1 1 0 0 1-.75-1.49l.34-.6a.81.81 0 0 0-.25-1.07q-.73-.49.22-.93a.42.42 0 0 0 .15-.63q-.27-.35.24-.35 1.22-.01.52-1.01-.65-.92.9-1 .24-.01.03-.16l-.12-.08q-.36-.25.13-.2 1.2.12.83-.41-.4-.59.31-.64.59-.05.36-.47a.52.51 71 0 1 .36-.74l4.92-.99a.52.52 0 0 0 .41-.52v-.25a.28.27-8.7 0 1 .2-.26l2.57-.67q1.31-.34-.02-.63l-.44-.1q-.88-.2.9-.34l1.22-.09q1.15-.09.08-.51c-.82-.32 2.14-.05 2.13-.76a.63.63 0 0 1 .36-.6c2.9-1.37 5.97 1.31 7.95-1.25a1.05.99 68.3 0 0 .21-.53l.19-2.29a.64.64 0 0 0-.58-.69q-.44-.04-.29-.26a.27.26 25.7 0 0-.14-.39L95.21 4.3q.06-.17.04-.3 11.43-.63 22.82.45Z"/><path fill="#010201" fill-opacity=".647" d="M95.25 4q.02.13-.04.3.67.55 1 1.17a1 1 0 0 1-.73 1.47q-2.24.31-4.23 1.53c-1.43.88-1.9 2.57-4.35 2.57a.98.98 0 0 0-.86.48q-.6.99-2.06.35a.99.98-51.9 0 0-1.01.13c-1.83 1.42-2.8 2.34-5.31 2.93q-1.93.46-3.57 1.65a.99.94 24.3 0 1-.55.19l-7.19.23a.41.41 0 0 0-.37.56q.16.41-.5.48-2.19.24-2.73 2.27a1 .99-76 0 1-1.19.72q-2.03-.48-3.75.69a1.01.99-58.1 0 1-.7.17c-3.85-.54-7.6 1.59-10.5 3.91a1.02 1 27.5 0 1-.71.22c-2.39-.2-3.33 2.3-5.27 3.15q-.79.35.13.34l.34-.01q.87-.01.1.4-3.95 2.07-6.08 5.92a1.06 1.03-37.7 0 0-.1.71c.57 2.49-2.07 3.78-1.73 4.86a.65.62-34.8 0 1-.12.59q-1.11 1.36-.86 3.05a.51.5.8 0 0 .42.43l.26.04a.33.33 0 0 1 .27.39q-.29 1.43.52 2.54a.34.32-36.4 0 1-.08.46q-.26.18-.03.41.63.61-.24.7-.63.07-.2.28a.8.79 27.5 0 1 .35 1.09q-1.82 3.46-1.34 7.49a1.01.98 14.4 0 0 .43.71q.96.65 1.31 1.77a.99.97 52 0 1-.09.81l-1.37 2.35a1 1 0 0 1-.86.49L26.6 65a.64.63 89.1 0 1-.64-.63q-.01-.5-.53-.41a.41.4 75.1 0 0-.31.54q.13.37-.29.48a.65.64-9 0 0-.49.67l.28 3.2a1.01.97 19.1 0 0 .34.67q.61.54.23 1.09a.64.64 0 0 0 .33.98q1.07.33-.48.42a.65.65 0 0 0-.6.61l-.01.28a.51.51 0 0 0 .49.53q5.58.3.58.64-.5.03-.07.25l.32.17q.25.13-.01.26-.73.36-.24.63.67.35-.07.48-1.52.28-.48.63a.21.21 0 0 1 .08.35l-.24.24q-.33.33.13.36l1.49.12q1.24.09.07.51-.54.19.04.37.58.19.05.48-.55.3.07.64-.28.67-.79 1.18a.52.51 40.9 0 0 .06.78c.9.65-1.42 1.51-.27 1.97a.42.41-67.1 0 1 .22.55q-.4.95.49 1.3.68.27.09.71-.37.28-.19.92a1.01 1 61.8 0 1-.3 1.01l-1.2 1.09a.98.97 71.4 0 0-.32.65l-.09.91a1 .97 28.2 0 0 .23.73q.66.78.53 1.67a.52.51-71.7 0 0 .25.51q.4.25-.15.48a.65.65 0 0 0-.39.64l.03.35a.8.79 67.6 0 1-.27.66c-2.03 1.76-.31 3.44-.26 5.11.04 1.16-.58 4.6-1.89 5.02a.4.4 0 0 0-.24.55q.14.32-.2.47-.68.31 0 .6 3.3 1.41 1.75 5.01a.8.79-58.5 0 0 .22.93q.75.62-.13 1.3a1.02.95-13.9 0 0-.34.52q-.19.69-.63 1.16a.8.79-55.5 0 0 .23 1.26q1.17.57.05 2.43a.98.98 0 0 0-.14.63q.27 2.36-2.66.99a.8.78 13.3 0 1-.46-.73q0-.15.04-.3a.64.64 0 0 0-.52-.79q-.81-.13-.3-.29a.8.8 0 0 0 .54-.59l.25-1.16q.02-.11.02-.21.01-3.16-.84-6.07c-.83-2.84-.44-4.83-.11-7.55.26-2.13-.24-3.83-.25-5.99a.81.8 80.3 0 1 .53-.76q.64-.23-.09-.44a.41.41 0 0 1-.28-.49q.08-.38-.45-.44-.48-.06.12-.25l.4-.13q.63-.2.03-.49-.69-.33-.19-.53.71-.3-.03-.5-1.25-.34-.2-.5a.51.51 0 0 0 .33-.81q-.53-.73-.34-1.67a1.01 1-5.1 0 1 .62-.73q.76-.29.04-.32-1.24-.04-.17-.25l.42-.09q1.96-.38-.03-.41l-3.12-.05q-1.05-.02-.09.4.59.25-.2.39a.99.99 0 0 0-.82.84q-.21 1.41-1.06 2.47a.81.8 41.1 0 0 .08 1.08q.71.67-.7.71-1.13.03-.01.33l.38.1q.87.24 0 .51-.61.19-.13.47.88.5-.13.61-1.33.13.43.53 1.08.24-.01.41l-.26.04a.8.8 0 0 0-.66.95q.2.99-.5 1.21-.2.07 0 .18l.32.19q.62.36-.19.31-.77-.04-.24.89a1.01 1-36.3 0 1-.2 1.25q-.89.79-1.07 2.19c-.05.41.51.51-.38.91q-.21.09 0 .21l.24.12a.51.5 15.4 0 1 .27.46l-.08 4.83a.98.95-63.9 0 0 .2.62l.7.94a.64.63-48.4 0 1 .04.71q-.22.38.13.5a.41.41 0 0 1 .26.38q.02.7.41 1.26a.63.63 0 0 1 .06.61q-.22.53.38.82a.63.63 0 0 1 .36.63q-.03.31-.16.49a.41.41 0 0 0 .27.65l.34.05a.8.79-85.5 0 1 .68.8q-.03 2.32 1.06 4.42a.26.26 0 0 1-.19.38l-.33.04a.43.01 74.1 0 0 .11.42q.16.56-.41.58a.52.51 78.1 0 0-.46.71q.28.67.03 1.3a1.01.91 53.3 0 0-.05.53l.46 2.81q.03.18-.01.36-.3 1.46 1.09 1.85a.26.26 0 0 1 .12.43q-.16.18.05.31a.33.33 0 0 1 .06.49q-1.02 1.18.32 1.84a.98.92 88.2 0 1 .45.45q.66 1.33-.71 2-.29.14-.11.24l.29.16a.34.33 31.7 0 1 .12.48q-.48.69.35.61a.8.8 0 0 1 .82.49q.15.36.45.42.75.15.13.59-1.34.95.37 1.51.34.11.11.25l-.25.13a.22.21 55.5 0 0-.05.32l3.77 4.55a1.01 1 37.1 0 1 .15 1.02q-1.02 2.44.22 4.7a.79.78-14 0 0 .69.41c.87.02-.07.58-.32.62q-1.24.24-.24.39a.8.8 0 0 1 .65 1.01q-.19.69.43.95.62.27-.04.4-1.14.23.25.84a.41.4-74.9 0 1 .24.43l-.04.32a.52.51-84.8 0 0 .48.58q.71.04.29.19a.8.78 80.8 0 0-.53.75l-.03 4.24-3.39-4.33q-.2-.26-.53-.92-.52-1.02-1.47-1.67a.81.79-66.1 0 1-.32-.85q.14-.61-.44-.67a.64.63-84.2 0 1-.57-.71q.17-1.52-1.23-2.25a.99.99 0 0 1-.54-.9v-.39a1 .99 10.3 0 0-.66-.95q-.73-.26-.62-1.05a.81.81 0 0 0-.53-.86q-.58-.2-.45-.86a1.02 1.01-55.4 0 0-.13-.71q-2.62-4.22-3.71-9.05a.65.63-5.3 0 0-.6-.49l-.32-.02a.33.33 0 0 1-.3-.42q.47-1.58-.59-2.68a1.03.99-63.9 0 1-.26-.82c.26-2.07-.96-3.43-1.28-4.86q-.68-2.99-.63-6.05a.41.41 0 0 0-.41-.42h-.28a.21.21 0 0 1-.21-.21c0-.89.28-5.69-.6-5.85a.79.79 0 0 1-.65-.78c-.02-4.09-1-25.54.48-27.62a1.06 1.03-32.7 0 0 .17-.74c-.15-.95-.76-4.18.81-4.56a1 1 0 0 0 .77-.97l.01-3a1.01 1 71.1 0 1 .38-.79q1.01-.8.5-2.23a.51.51 0 0 1 .32-.65l.36-.13a.41.4 84.5 0 0 .27-.34l.75-6.27a.98.96 70.9 0 1 .26-.55q1.55-1.71 1.69-3.98.01-.23.12-.43l2.56-4.53a.48.4-4.7 0 1 .19-.19q.22-.13.3-.4 1.28-4 4.07-7.14.18-.2.23-.46.51-2.45 2.41-4a1 1 0 0 0 .35-.61c.23-1.38 7.41-9.87 9.55-11.99 2.08-2.06 5.33-6.55 8.07-7.18a.99.97 7.7 0 0 .63-.47q1.47-2.49 4.19-3.57a.95.91 6.4 0 0 .42-.32q1.34-1.73 3.39-2.46a1.02 1.01 3 0 0 .56-.5c.9-1.81 2.9-2.03 4.14-2.76q4.7-2.79 9.67-5a1.12 1.01 3 0 0 .42-.34q.49-.71 1.48-.58a.8.8 0 0 0 .81-.42q.37-.71 1.27-.5a1.03 1.02-53.2 0 0 .74-.11l3.38-2.02a1.05 1.03 36.4 0 1 .77-.11q1.04.28 1.54-.51a1.01 1 19.5 0 1 .98-.46l1.92.26a1.01 1 22.3 0 0 .92-.38q.9-1.15 2.56-.53a.52.51-71.3 0 0 .68-.34l.08-.29a.8.8 0 0 1 .98-.55q2.38.65 4.04-.91a1.01.99-66 0 1 .68-.27l4.33-.02a1.02.98 21.8 0 0 .71-.29l.41-.41a.99.98 21.8 0 1 .71-.3l4.2.01Z"/><path fill="#030d04" fill-opacity=".655" d="m95.21 4.3 3.87 1.36a.27.26 25.7 0 1 .14.39q-.15.22.29.26a.64.64 0 0 1 .58.69l-.19 2.29a1.05.99 68.3 0 1-.21.53c-1.98 2.56-5.05-.12-7.95 1.25a.63.63 0 0 0-.36.6c.01.71-2.95.44-2.13.76q1.07.42-.08.51l-1.22.09q-1.78.14-.9.34l.44.1q1.33.29.02.63l-2.57.67a.28.27-8.7 0 0-.2.26v.25a.52.52 0 0 1-.41.52l-4.92.99a.52.51 71 0 0-.36.74q.23.42-.36.47-.71.05-.31.64.37.53-.83.41-.49-.05-.13.2l.12.08q.21.15-.03.16-1.55.08-.9 1 .7 1-.52 1.01-.51 0-.24.35a.42.42 0 0 1-.15.63q-.95.44-.22.93a.81.81 0 0 1 .25 1.07l-.34.6a1 1 0 0 0 .75 1.49q1.65.19 2.54-1.48a1.02 1-81.9 0 1 .67-.51q1.51-.32 3.37-1.67 1.07-.77 2.68-.49a.99.98 89.1 0 1 .81.79l.12.62a.79.78 84.7 0 0 .77.65q.63.01.25.43-.48.54.24.55c2.55.03 9.74-.64 11.49 1.05q1.6 1.54.78 3.69-9.41 1.09-17.07 6.3 1.07-1.18 2.39-2.03Q87.49 33 84.75 33l-2.5-.01a1 1 0 0 1-.65-.24q-2.14-1.87-5.11-1.7-2.36.13-2.15-1.1a.8.79-86.5 0 0-.82-.94l-1.76.09a.98.96-23 0 1-.77-.3c-1.51-1.55-2.99-.39-4.68-1.11q-1.77-.76-1.67-2.64a1 1 0 0 0-.97-1.05q-4.61-.16-9.16.67a1.07 1.04 52 0 1-.6-.08q-.92-.42-1.28.34a1.02 1.01-76.8 0 1-.91.57h-3.51a.99.98 14.1 0 0-.89.53q-.67 1.26-2 1.52a.99.99 0 0 0-.74.61q-.55 1.38-1.52 2.41c-1.88 2-4.97.99-4.72 5.19a.79.78-22.3 0 1-.28.66q-.38.31-.35.77a.81.8-7.2 0 1-.64.82q-.57.13-.19.4a.41.41 0 0 1 0 .66q-.69.52-.23 1.36a.8.8 0 0 1-.54 1.17q-1 .2.61.39.77.08.26.67-.44.52.81.34.86-.12.4.62-.37.6.93.54a1.01 1 3.1 0 1 1.04 1.15l-.35 2.34a1.01 1 4.6 0 1-1.01.85l-1.1-.02a1 1 0 0 0-1.01 1.01v.44a1 1 0 0 1-1.06 1q-1.03-.05-.67 1.12a1.01.99-31 0 1-.26 1.01q-1.59 1.54-.64 3.47a.98.98 0 0 1-.02.93q-.94 1.7.78 1.96a1.02 1.01-7 0 1 .77.6q.83 1.97-.49 3.67a.21.19 61.9 0 0-.04.17q.03.16.18.27a.27.26 47.8 0 1-.02.43l-1.21.81a1 1 0 0 0-.28 1.39q.36.53.35 1a.8.8 0 0 0 .59.81l.27.07q.91.24.22.87-.86.79-1.12 1.92-.19.83-.75 1.36-.72.68.28.7 1.15.03.29.36a1 .99 75 0 0-.62 1.08q.09.57-.22 1.23a1.03 1.02 43.4 0 0 .03.89q.99 1.85-1.65 1.42-.25-.04-.5.05-3.25 1.18-2.62 2.94a1.01.99 61.3 0 1-.32 1.12q-1.05.83.34 1.66.2.11-.11.2l-.19.05a.39.02 77 0 0 .07.39l.84 3.88a.33.33 0 0 0 .28.26l.25.04q.57.08-.38.48-.52.23-.12.46a.42.41-54.3 0 1 .1.62c-.66.79.07 2.06-.73 2.78a.41.41 0 0 0 .06.66q.34.2-.1.44a1 .99 67.1 0 0-.47 1.18q.07.24.23.43a.33.33 0 0 1-.09.49q-.29.17-.05.37.43.36-.12.46-2.09.37-2.07 2.59c0 .56.33 1.09.29 1.69a1.01 1.01 0 0 0 .83 1.05l4.95.85q.61.1.18.55-.38.39.28.38a.65.64 80.9 0 0 .6-.84q-.23-.72.35-1.25a.29.09-43.4 0 0 .17-.29q-.14-.06-.24-.13a.26.26 0 0 1 .04-.45l.4-.19q1.24-.57-.11-.4-1.09.15-.59-1.09a.67.64 46.6 0 0 0-.47q-.06-.15-.06-.32a.43.41-12 0 1 .26-.38q1.33-.53 1.76-1.76a.79.76-86.9 0 1 .54-.5q.68-.18-.29-.57-1.2-.49-.06-.42l.27.02q1.55.09.12-.51-1.36-.56.33-.49a1.03.99 67.3 0 1 .63.27q1.65 1.52.67 2.97a.98.98 0 0 0-.16.68q.15 1.24-.46 2.08a1.01.99-42.9 0 0-.05 1.1q1.91 3.21.61 6.59-.61 1.59.52 2.07.16.07 0 .15l-.23.12a.26.26 0 0 0-.05.43c2.95 2.59-.11 4.69.87 7.18a.33.33 0 0 1-.21.43l-.31.1q-.6.19-.1.57.6.46.71 1.07a.99.99 0 0 0 .66.77q1.13.39.26 1.85a.5.5 0 0 0 .03.58q.37.47.1 1.76a1.01 1-82.9 0 0 .93 1.21q.57.02.1.37a1.03 1.01-61.5 0 1-.62.19l-1.65-.04a1.03 1.02-15.5 0 1-.82-.46l-.91-1.44a.42.41 68.5 0 1 .27-.63q.33-.06.08-.28a.51.5 42.7 0 1-.04-.74q.42-.43.13-1.31a.4.4 0 0 1 .04-.34l.16-.27a.27.26 23.4 0 0-.16-.39q-.51-.14-1.01-.12-3.14.11-.03.52 1.21.16-.91.67a.52.51 84.8 0 0-.39.48q-.03.55-.85.63-.21.02-.01.09l.24.09q.47.18-.03.3-1.28.31-.56.73a1 .99-75.5 0 1 .49.84q.05 1.91-1.2 3.29a1.02 1.02 0 0 1-.64.32q-.95.1-.71.45a.27.26-24.7 0 1-.15.4c-2.75.73 1.19 1.34 1.37 1.41q.46.18-.08.21-4.85.25-.37.61.61.05.15.46-.37.34.24.46 1.08 1.46.85 3.19a1 1 0 0 1-.78.85q-.88.19-.21.76a1.01 1-73.4 0 1 .34.63q.11.84.55 2.42.79 2.81-1.55 4.41a1 1 0 0 0-.37 1.19q.31.8.25 1.66a1.01 1.01 0 0 1-.75.89q-1.47.38-.27.51.75.08.18.57-.56.49.48.44.93-.05.16.47l-.21.15a.33.32-36.9 0 0-.07.47q.25.32.04.68a.51.51 0 0 0 .34.76q.38.08.04.24-.83.4.02.75.72.29.19.98a1.06 1.01-76.1 0 1-.58.37l-.63.14a1 .99-6.1 0 0-.79.97v5.97a1 1 0 0 1-1.03 1q-.83-.02-.7.83a1.01 1-17.9 0 1-.55 1.06l-.25.12a.51.51 0 0 0-.09.87q.42.31.12.72a.82.81-39.1 0 0-.09.78q.21.49.59.88-1.64-1.14-2.76-3.03l.03-4.24a.8.78 80.8 0 1 .53-.75q.42-.15-.29-.19a.52.51-84.8 0 1-.48-.58l.04-.32a.41.4-74.9 0 0-.24-.43q-1.39-.61-.25-.84.66-.13.04-.4-.62-.26-.43-.95a.8.8 0 0 0-.65-1.01q-1-.15.24-.39c.25-.04 1.19-.6.32-.62a.79.78-14 0 1-.69-.41q-1.24-2.26-.22-4.7a1.01 1 37.1 0 0-.15-1.02l-3.77-4.55a.22.21 55.5 0 1 .05-.32l.25-.13q.23-.14-.11-.25-1.71-.56-.37-1.51.62-.44-.13-.59-.3-.06-.45-.42a.8.8 0 0 0-.82-.49q-.83.08-.35-.61a.34.33 31.7 0 0-.12-.48l-.29-.16q-.18-.1.11-.24 1.37-.67.71-2a.98.92 88.2 0 0-.45-.45q-1.34-.66-.32-1.84a.33.33 0 0 0-.06-.49q-.21-.13-.05-.31a.26.26 0 0 0-.12-.43q-1.39-.39-1.09-1.85.04-.18.01-.36l-.46-2.81a1.01.91 53.3 0 1 .05-.53q.25-.63-.03-1.3a.52.51 78.1 0 1 .46-.71q.57-.02.41-.58a.43.01 74.1 0 1-.11-.42l.33-.04a.26.26 0 0 0 .19-.38q-1.09-2.1-1.06-4.42a.8.79-85.5 0 0-.68-.8l-.34-.05a.41.41 0 0 1-.27-.65q.13-.18.16-.49a.63.63 0 0 0-.36-.63q-.6-.29-.38-.82a.63.63 0 0 0-.06-.61q-.39-.56-.41-1.26a.41.41 0 0 0-.26-.38q-.35-.12-.13-.5a.64.63-48.4 0 0-.04-.71l-.7-.94a.98.95-63.9 0 1-.2-.62l.08-4.83a.51.5 15.4 0 0-.27-.46l-.24-.12q-.21-.12 0-.21c.89-.4.33-.5.38-.91q.18-1.4 1.07-2.19a1.01 1-36.3 0 0 .2-1.25q-.53-.93.24-.89.81.05.19-.31l-.32-.19q-.2-.11 0-.18.7-.22.5-1.21a.8.8 0 0 1 .66-.95l.26-.04q1.09-.17.01-.41-1.76-.4-.43-.53 1.01-.11.13-.61-.48-.28.13-.47.87-.27 0-.51l-.38-.1q-1.12-.3.01-.33 1.41-.04.7-.71a.81.8 41.1 0 1-.08-1.08q.85-1.06 1.06-2.47a.99.99 0 0 1 .82-.84q.79-.14.2-.39-.96-.42.09-.4l3.12.05q1.99.03.03.41l-.42.09q-1.07.21.17.25.72.03-.04.32a1.01 1-5.1 0 0-.62.73q-.19.94.34 1.67a.51.51 0 0 1-.33.81q-1.05.16.2.5.74.2.03.5-.5.2.19.53.6.29-.03.49l-.4.13q-.6.19-.12.25.53.06.45.44a.41.41 0 0 0 .28.49q.73.21.09.44a.81.8 80.3 0 0-.53.76c.01 2.16.51 3.86.25 5.99-.33 2.72-.72 4.71.11 7.55q.85 2.91.84 6.07 0 .1-.02.21l-.25 1.16a.8.8 0 0 1-.54.59q-.51.16.3.29a.64.64 0 0 1 .52.79q-.04.15-.04.3a.8.78 13.3 0 0 .46.73q2.93 1.37 2.66-.99a.98.98 0 0 1 .14-.63q1.12-1.86-.05-2.43a.8.79-55.5 0 1-.23-1.26q.44-.47.63-1.16a1.02.95-13.9 0 1 .34-.52q.88-.68.13-1.3a.8.79-58.5 0 1-.22-.93q1.55-3.6-1.75-5.01-.68-.29 0-.6.34-.15.2-.47a.4.4 0 0 1 .24-.55c1.31-.42 1.93-3.86 1.89-5.02-.05-1.67-1.77-3.35.26-5.11a.8.79 67.6 0 0 .27-.66l-.03-.35a.65.65 0 0 1 .39-.64q.55-.23.15-.48a.52.51-71.7 0 1-.25-.51q.13-.89-.53-1.67a1 .97 28.2 0 1-.23-.73l.09-.91a.98.97 71.4 0 1 .32-.65l1.2-1.09a1.01 1 61.8 0 0 .3-1.01q-.18-.64.19-.92.59-.44-.09-.71-.89-.35-.49-1.3a.42.41-67.1 0 0-.22-.55c-1.15-.46 1.17-1.32.27-1.97a.52.51 40.9 0 1-.06-.78q.51-.51.79-1.18-.62-.34-.07-.64.53-.29-.05-.48-.58-.18-.04-.37 1.17-.42-.07-.51l-1.49-.12q-.46-.03-.13-.36l.24-.24a.21.21 0 0 0-.08-.35q-1.04-.35.48-.63.74-.13.07-.48-.49-.27.24-.63.26-.13.01-.26l-.32-.17q-.43-.22.07-.25 5-.34-.58-.64a.51.51 0 0 1-.49-.53l.01-.28a.65.65 0 0 1 .6-.61q1.55-.09.48-.42a.64.64 0 0 1-.33-.98q.38-.55-.23-1.09a1.01.97 19.1 0 1-.34-.67l-.28-3.2a.65.64-9 0 1 .49-.67q.42-.11.29-.48a.41.4 75.1 0 1 .31-.54q.52-.09.53.41a.64.63 89.1 0 0 .64.63l5.06-.01a1 1 0 0 0 .86-.49l1.37-2.35a.99.97 52 0 0 .09-.81q-.35-1.12-1.31-1.77a1.01.98 14.4 0 1-.43-.71q-.48-4.03 1.34-7.49a.8.79 27.5 0 0-.35-1.09q-.43-.21.2-.28.87-.09.24-.7-.23-.23.03-.41a.34.32-36.4 0 0 .08-.46q-.81-1.11-.52-2.54a.33.33 0 0 0-.27-.39l-.26-.04a.51.5.8 0 1-.42-.43q-.25-1.69.86-3.05a.65.62-34.8 0 0 .12-.59c-.34-1.08 2.3-2.37 1.73-4.86a1.06 1.03-37.7 0 1 .1-.71q2.13-3.85 6.08-5.92.77-.41-.1-.4l-.34.01q-.92.01-.13-.34c1.94-.85 2.88-3.35 5.27-3.15a1.02 1 27.5 0 0 .71-.22c2.9-2.32 6.65-4.45 10.5-3.91a1.01.99-58.1 0 0 .7-.17q1.72-1.17 3.75-.69a1 .99-76 0 0 1.19-.72q.54-2.03 2.73-2.27.66-.07.5-.48a.41.41 0 0 1 .37-.56l7.19-.23a.99.94 24.3 0 0 .55-.19q1.64-1.19 3.57-1.65c2.51-.59 3.48-1.51 5.31-2.93a.99.98-51.9 0 1 1.01-.13q1.46.64 2.06-.35a.98.98 0 0 1 .86-.48c2.45 0 2.92-1.69 4.35-2.57q1.99-1.22 4.23-1.53a1 1 0 0 0 .73-1.47q-.33-.62-1-1.17Z"/><path fill="#1a2619" fill-opacity=".659" d="M118.07 4.45 131.96 7l.29.71q-3.68-1.29-7.48-1.33a1.12 1.1-28.4 0 1-.52-.15q-2.1-1.3-3.97.27a1 .97 28.1 0 1-.77.22q-3.55-.45-6.88.77a.2.14-14 0 0-.13.15v.1a.2.19-3.8 0 0 .23.19q2.13-.35 3.22 1.38a.99.99 0 0 0 1.05.44q2.16-.46 1.74 1.66a.99.96 35.3 0 0 .14.75q1.31 1.97 1.23 4.26a1.01 1 17.5 0 0 .46.88l4.63 2.96a.98.96-32.7 0 0 .68.14l1.66-.24a.99.98-83.3 0 0 .78-.62c.51-1.28 3.62.18 4.84.22a1.02 1.02 0 0 1 .8.44q1.06 1.58-.03 2.82a.99.99 0 0 0-.08 1.22q.75 1.11.39 2.57a.99.98 26.4 0 0 .35 1.02l1.77 1.41a1.04 1.03-25.5 0 0 .64.22q1.57-.04 2.93.87a1 .99-29.4 0 0 .62.17q2.18-.16 2.67 1.82.05.22.19.39l2.78 3.46q.13.16.31.25 1.47.79 3.22.52a1.03 1-36.4 0 1 .59.08c5.57 2.68 6.56-4.35 12.5-2.22a1 .98-60.4 0 0 1.11-.32q1.34-1.65 3.25-2.14a.99.98 88.6 0 0 .73-.77l.52-2.61a.67.04-79.1 0 1 .16-.63q.19-.04.38.42l.18 3.31c-.03 9.43-7.33 1.37-11.16 5.01a.99.98-20 0 0-.3.63l-.71 7.43a1.04 1.03 76.3 0 1-.46.76q-.73.46-1.16-.07a.65.63 62.4 0 0-.68-.22c-4.26 1.23-1.27 4.99.37 6.84q.24.26.22-.19l-.01-.25q-.02-.36.23-.22.49.28.27.77a.64.64 0 0 0 .16.74l.84.75a.96.94-76.5 0 1 .3.5l2.73 10.96q.06.24.23.43 2.56 2.84.84 6.15a1 .98-55.4 0 0 .21 1.2q1.85 1.68 3.53 3.53c1.13 1.25 3.22 2.44 3.94 4.71q.08.25.27.43 1.61 1.5 3.68 1.84a.99.98-58.8 0 0 .76-.19q2.3-1.72 3.08 1.14c.3 1.09 0 1.95-.19 3.08-.59 3.58 1.62 5.61-2.19 8.38a.97.97 0 0 0-.41.79q-.03 1.98-1.37 3.25-.06.53-.43.27a.41.41 0 0 1-.17-.44q.51-1.86-.52-3.2-1.07-1.39-1.72.24-1.51 3.75-1.02 7.89.22 1.86 2.4 1.7 2.46-.19 3.58 1.96a1 1 0 0 0 .95.54q4.15-.24 8.01 1.32a1.03.99-48.5 0 0 .9-.07q2.78-1.72 5.81-.43a.35.32-42.1 0 0 .25 0l.24-.1a.65.64 49.7 0 1 .56.05q3.14 1.83 3.82-1.95a1.03 1 74.3 0 1 .31-.57l2.08-1.9a1.01 1-46.1 0 1 1.32-.03q1.34 1.12 1.96 2.95.36 1.09 1.06.9a.65.64 65.1 0 1 .7.26q.98 1.46 1.46-.38l.25.75q.16 6.98-1.46 13.79-1.81-.97-3.01-2.7a.79.79 0 0 0-1.26-.06q-.89 1.04-1.06-.82a.53.53 0 0 0-.38-.45q-.4-.1-.31-.5a.41.41 0 0 0-.39-.51l-2.58-.01a.99.99 0 0 1-.92-.62q-.56-1.37-2.01-2.17a1.05 1.03-87.5 0 1-.44-.49q-1.67-4.03-5.31-1.9-.13.07-.27.1-2 .49-2.77-1.17a.98.98 0 0 0-.83-.58l-3.96-.29a1.03 1.02 21.3 0 0-.85.37q-1.24 1.51-3.05 2.25-.19.08-.4.07-1.39-.04-1.6-1.63a1 .98 16.7 0 0-.35-.63c-.86-.72-1.57-.58-2.18-1.12-2.75-2.4-2.24-7.99-1.76-11.06.5-3.18.11-5.59-.11-8.56a1 .97-65.9 0 0-.19-.52q-.69-.94-.38-2.04a.51.5-56.8 0 0-.09-.45l-.17-.23a.97.97 0 0 1-.15-.94q1.38-3.92-1.16-7.37a1.02 1.01 68.9 0 0-.9-.4c-1.97.18-4.11-3.33-5.06-4.82a1 .98 31.5 0 1-.16-.63q.55-6.37-2.16-12.1a.8.8 0 0 0-.86-.45q-.73.13-.94-.59a1.01 1.01 0 0 0-.5-.61q-1.85-.95-2.26-2.21-.89-2.75-1.59-9.01c-.23-2.09-1.67-4.44-3.71-5.83-1.65-1.14-2.83-2.96-4.82-3.25q-2.6-.37-4.85 1.18-10.51-7.62-23.31-9.81-5.92-1.79.32-.63a1 .97 33.5 0 0 .7-.13q1.89-1.17-.71-.95-1.32.11.04-.19 1.96-.44 4.96.39 5.86 1.6 6.86-3.75.44-2.37-1.56-3.69a1 .99-32.7 0 0-.7-.15l-3.25.49a1 .99-27.3 0 1-.83-.26l-3.48-3.24a1.02 1 27 0 1-.31-.92l.39-2.03a.99.98-60.1 0 0-.22-.83q-1.47-1.73-1.43-4.02a1 1 0 0 0-1.35-.95q-2.09.77-1.66-1.39 1.03-5.06 6.86-4.53Z"/><path fill="#242627" fill-opacity=".655" d="m132.25 7.71 3.26.36a1.03 1.03 0 0 1 .76.49q.54.93 1.82.78a1 .99-28.1 0 1 .79.24q1.82 1.64 4.29 1.75a1.02 1.02 0 0 1 .8.47q.49.78 1.46.31a.34.33-29.1 0 1 .43.12l.19.32a1.01 1-23.3 0 0 1.12.44q.69-.19.91.51a1.01 1-87.5 0 0 .56.62l4.85 2.09a1.04 1 .4 0 1 .53.52q.6 1.38 2.09 1.43a1.01.97 67 0 1 .66.28c.92.88 3.1 1.15 3.28 2.21a.66.63 9.2 0 0 .36.48q.31.14.62.08a.62.6-32.3 0 1 .52.11l6.2 4.64 1.04 1.79.17 1q-.19-.46-.38-.42a.67.04-79.1 0 0-.16.63l-.52 2.61a.99.98 88.6 0 1-.73.77q-1.91.49-3.25 2.14a1 .98-60.4 0 1-1.11.32c-5.94-2.13-6.93 4.9-12.5 2.22a1.03 1-36.4 0 0-.59-.08q-1.75.27-3.22-.52-.18-.09-.31-.25l-2.78-3.46q-.14-.17-.19-.39-.49-1.98-2.67-1.82a1 .99-29.4 0 1-.62-.17q-1.36-.91-2.93-.87a1.04 1.03-25.5 0 1-.64-.22l-1.77-1.41a.99.98 26.4 0 1-.35-1.02q.36-1.46-.39-2.57a.99.99 0 0 1 .08-1.22q1.09-1.24.03-2.82a1.02 1.02 0 0 0-.8-.44c-1.22-.04-4.33-1.5-4.84-.22a.99.98-83.3 0 1-.78.62l-1.66.24a.98.96-32.7 0 1-.68-.14l-4.63-2.96a1.01 1 17.5 0 1-.46-.88q.08-2.29-1.23-4.26a.99.96 35.3 0 1-.14-.75q.42-2.12-1.74-1.66a.99.99 0 0 1-1.05-.44q-1.09-1.73-3.22-1.38a.2.19-3.8 0 1-.23-.19v-.1a.2.14-14 0 1 .13-.15q3.33-1.22 6.88-.77a1 .97 28.1 0 0 .77-.22q1.87-1.57 3.97-.27a1.12 1.1-28.4 0 0 .52.15q3.8.04 7.48 1.33Z"/><path fill="#323232" fill-opacity=".502" d="M140 6.04q16.36 5.49 29.5 16.67l-1.75 3.25-6.2-4.64a.62.6-32.3 0 0-.52-.11q-.31.06-.62-.08a.66.63 9.2 0 1-.36-.48c-.18-1.06-2.36-1.33-3.28-2.21a1.01.97 67 0 0-.66-.28q-1.49-.05-2.09-1.43a1.04 1 .4 0 0-.53-.52l-4.85-2.09a1.01 1-87.5 0 1-.56-.62q-.22-.7-.91-.51a1.01 1-23.3 0 1-1.12-.44l-.19-.32a.34.33-29.1 0 0-.43-.12q-.97.47-1.46-.31a1.02 1.02 0 0 0-.8-.47q-2.47-.11-4.29-1.75a1 .99-28.1 0 0-.79-.24q-1.28.15-1.82-.78a1.03 1.03 0 0 0-.76-.49l-3.26-.36-.29-.71q.53.07.77-.25a.52.51 32.2 0 1 .65-.14c2.25 1.2 4.76-.34 6.62-.57Z"/><path fill="#000100" fill-opacity=".498" d="M169.5 22.71q5.24 3.82 8.31 6.98Q203.74 56.36 208 93.56v18.75l-.69-3.14q-.19-.87-.84-.27-.67.61-2.26-.4.48-2.42-.37-4.55l-.11-13.24a.21.21 0 0 0-.21-.21h-.3a.41.4-.7 0 1-.4-.38q-.49-7.04-1.43-9.85-.67-1.98-.68-3.38a1.01.99-73.3 0 0-.42-.8c-.81-.58.32-2.84-1-4.14a1.02.98-68.2 0 1-.29-.71v-1.42a.8.8 0 0 0-.53-.75q-.67-.25-.54-1.1a1 1 0 0 0-.43-.97q-.95-.65-.33-1.8a.8.8 0 0 0-.37-1.11l-.28-.13a.79.78 16 0 1-.46-.82q.08-.7-.49-1.01a1.02 1 18 0 1-.52-1q.09-.76-.54-1.15a1 1 0 0 1-.47-.99q.12-.8-.56-.76a.65.64-83.8 0 1-.65-.82l.17-.59a.65.64 11.7 0 0-.54-.81q-.62-.08-.51-.72a1.03 1.02 25.5 0 0-.34-.95c-2.12-1.77-1.99-4.17-4.16-6.01a.98.98 0 0 1-.33-.58q-.44-2.24-2.37-3.54a1.02 1.01 20 0 1-.44-.94c.14-1.25-.53-1.09-1.21-1.68q-2.31-2.01-3.65-4.64-.08-.16-.22-.28l-9.54-8.58-.9-.34-1.04-1.79 1.75-3.25Z"/><path fill="#061908" fill-opacity=".655" d="m82.79 36.5-3.59 2.65q-.92-1.04-1.43-.35a.79.78 22.3 0 1-.75.31q-4.06-.56-8.02.35-3.09.7-3.28-.71-.12-.96-.79-1.48a1 .99-66.1 0 1-.37-.97q.51-2.74-2.07-4.25-.18-.11-.31-.28-.44-.63-1.16-1.01-.24-.13 0-.21l.22-.06q.78-.24.01-.27l-.93-.05a1 .99-.3 0 0-1.04 1.04q.03.77-.71.75a.32.05 1.7 0 0-.32.04l.02.26q.02.28-.26-.01-.78-.84-.65-.09.26 1.45-.39.13-.69-1.39-1.82-.35a1.01.98 26 0 1-.79.26c-2.92-.31-2.76 1.34-3.83 3.03q-.51.81-1.05 1.62a1.04.99-37.1 0 0-.13.8q.31 1.21-.81 1.61a.2.17-31.2 0 0-.1.3l.21.22a.25.25 0 0 1 .03.33c-.91 1.34-3.46 2.48-2.45 4.25a.99.98 30.7 0 1 .14.54c-.24 5.29-3.34 6.66-6.16 9.9a1 .99 62.6 0 0-.24.77c.23 1.96-1.03 3.71-1.26 5.02q-.51 2.91-.11 7.12a1.03 1.01-34.5 0 1-.11.57c-1.43 2.66-.33 9.46.21 12.6a.99.98-35.1 0 1-.12.66l-2.19 3.9a1.02.99-41.2 0 0-.07.84q1.24 3.26.54 6.82a1.05 1-52.8 0 0 .07.61c1.93 4.25.72 7.45 1.36 11.94a1.04 1.02-37.4 0 1-.08.56q-1.31 2.84.6 5.2a1 .97-66.6 0 1 .21.55c.39 4.48-.26 7.18 1.76 11.56.23.5.13 2.02.66 2.07a.64.63 1.7 0 1 .57.59q.05.76.69 1.11a1.01 1 14.7 0 1 .53.9c-.08 2.78-3.2 3.35-2.01 6.27a.81.8 49.5 0 1-.05.71q-.14.24-.13.51a.64.63 5.4 0 0 .49.59q.91.22.5.76a.33.32-58.5 0 0 .11.49q.51.26-.62.85a1.07.95-84.3 0 0-.38.35l-.69 1.11a.8.79-45.8 0 0 .01.87q.34.51-.14 1.14a.51.51 0 0 0 0 .6q.18.26.05.56a.41.4-78.9 0 0 .38.57l2.9-.09a1.01 1 65.8 0 1 .71.27q2.77 2.59 2.58 6.37a1.01.99 12.7 0 0 .63.98c3.79 1.49 3.07 4.41 3.58 7.58a.81.81 0 0 0 .6.65l.27.07q.64.15.13.57-.88.71.48.52a.97.97 0 0 1 .79.23q.42.36.31.81a.67.66 29.6 0 0 .17.61q.88.88-.67 2.95a.98.98 0 0 1-.72.39q-1.02.08-.42.51a.64.64 0 0 1-.08 1.09q-4.04 2.02-8.47 2.92-.78.95-2.04.8a.4.39 6.3 0 0-.45.35l-.03.26a1.01 1 22.2 0 0 .39.92q.9.68 2.06.86a.98.98 0 0 1 .56.29q5.25 5.47 11.96 9.04.19.1.28.25.27.44.37.5 12.13 7 25.74 10.5-1.2 1.6-.18 1.04 1.41 1.05 2.65 2.26a1.02.98-17.2 0 0 .56.28q2.91.42 4.11 3.07a1 .99 78.3 0 0 .89.59h.25a.64.64 0 0 1 .63.66q-.02 1.09-.5 2.09l-.29-.05c-3.03-1.45-7.48-1.29-10.79-1.53a.22.2-9.6 0 1-.17-.11l-.14-.27a.99.98 81.7 0 0-.69-.52q-11.42-2.37-21.39-8.49-.03-.02-.06-.03l-7.76-4.05-4.78-3.11a.99.99 0 0 1-.45-.85q.01-1.1-1.24-.79a1 .99 61.1 0 1-.96-.28l-2.96-3.1a1.02.97-19 0 0-.68-.31l-.44-.02a.52.51-20.7 0 1-.34-.15l-8.86-8.96a.99.97 22.2 0 1-.29-.67q-.04-1.13-1-1.76-.38-.39-.59-.88a.82.81-39.1 0 1 .09-.78q.3-.41-.12-.72a.51.51 0 0 1 .09-.87l.25-.12a1.01 1-17.9 0 0 .55-1.06q-.13-.85.7-.83a1 1 0 0 0 1.03-1v-5.97a1 .99-6.1 0 1 .79-.97l.63-.14a1.06 1.01-76.1 0 0 .58-.37q.53-.69-.19-.98-.85-.35-.02-.75.34-.16-.04-.24a.51.51 0 0 1-.34-.76q.21-.36-.04-.68a.33.32-36.9 0 1 .07-.47l.21-.15q.77-.52-.16-.47-1.04.05-.48-.44.57-.49-.18-.57-1.2-.13.27-.51a1.01 1.01 0 0 0 .75-.89q.06-.86-.25-1.66a1 1 0 0 1 .37-1.19q2.34-1.6 1.55-4.41-.44-1.58-.55-2.42a1.01 1-73.4 0 0-.34-.63q-.67-.57.21-.76a1 1 0 0 0 .78-.85q.23-1.73-.85-3.19-.61-.12-.24-.46.46-.41-.15-.46-4.48-.36.37-.61.54-.03.08-.21c-.18-.07-4.12-.68-1.37-1.41a.27.26-24.7 0 0 .15-.4q-.24-.35.71-.45a1.02 1.02 0 0 0 .64-.32q1.25-1.38 1.2-3.29a1 .99-75.5 0 0-.49-.84q-.72-.42.56-.73.5-.12.03-.3l-.24-.09q-.2-.07.01-.09.82-.08.85-.63a.52.51 84.8 0 1 .39-.48q2.12-.51.91-.67-3.11-.41.03-.52.5-.02 1.01.12a.27.26 23.4 0 1 .16.39l-.16.27a.4.4 0 0 0-.04.34q.29.88-.13 1.31a.51.5 42.7 0 0 .04.74q.25.22-.08.28a.42.41 68.5 0 0-.27.63l.91 1.44a1.03 1.02-15.5 0 0 .82.46l1.65.04a1.03 1.01-61.5 0 0 .62-.19q.47-.35-.1-.37a1.01 1-82.9 0 1-.93-1.21q.27-1.29-.1-1.76a.5.5 0 0 1-.03-.58q.87-1.46-.26-1.85a.99.99 0 0 1-.66-.77q-.11-.61-.71-1.07-.5-.38.1-.57l.31-.1a.33.33 0 0 0 .21-.43c-.98-2.49 2.08-4.59-.87-7.18a.26.26 0 0 1 .05-.43l.23-.12q.16-.08 0-.15-1.13-.48-.52-2.07 1.3-3.38-.61-6.59a1.01.99-42.9 0 1 .05-1.1q.61-.84.46-2.08a.98.98 0 0 1 .16-.68q.98-1.45-.67-2.97a1.03.99 67.3 0 0-.63-.27q-1.69-.07-.33.49 1.43.6-.12.51l-.27-.02q-1.14-.07.06.42.97.39.29.57a.79.76-86.9 0 0-.54.5q-.43 1.23-1.76 1.76a.43.41-12 0 0-.26.38q0 .17.06.32a.67.64 46.6 0 1 0 .47q-.5 1.24.59 1.09 1.35-.17.11.4l-.4.19a.26.26 0 0 0-.04.45q.1.07.24.13a.29.09-43.4 0 1-.17.29q-.58.53-.35 1.25a.65.64 80.9 0 1-.6.84q-.66.01-.28-.38.43-.45-.18-.55l-4.95-.85a1.01 1.01 0 0 1-.83-1.05c.04-.6-.29-1.13-.29-1.69q-.02-2.22 2.07-2.59.55-.1.12-.46-.24-.2.05-.37a.33.33 0 0 0 .09-.49q-.16-.19-.23-.43a1 .99 67.1 0 1 .47-1.18q.44-.24.1-.44a.41.41 0 0 1-.06-.66c.8-.72.07-1.99.73-2.78a.42.41-54.3 0 0-.1-.62q-.4-.23.12-.46.95-.4.38-.48l-.25-.04a.33.33 0 0 1-.28-.26l-.84-3.88a.39.02 77 0 1-.07-.39l.19-.05q.31-.09.11-.2-1.39-.83-.34-1.66a1.01.99 61.3 0 0 .32-1.12q-.63-1.76 2.62-2.94.25-.09.5-.05 2.64.43 1.65-1.42a1.03 1.02 43.4 0 1-.03-.89q.31-.66.22-1.23a1 .99 75 0 1 .62-1.08q.86-.33-.29-.36-1-.02-.28-.7.56-.53.75-1.36.26-1.13 1.12-1.92.69-.63-.22-.87l-.27-.07a.8.8 0 0 1-.59-.81q.01-.47-.35-1a1 1 0 0 1 .28-1.39l1.21-.81a.27.26 47.8 0 0 .02-.43q-.15-.11-.18-.27a.21.19 61.9 0 1 .04-.17q1.32-1.7.49-3.67a1.02 1.01-7 0 0-.77-.6q-1.72-.26-.78-1.96a.98.98 0 0 0 .02-.93q-.95-1.93.64-3.47a1.01.99-31 0 0 .26-1.01q-.36-1.17.67-1.12a1 1 0 0 0 1.06-1v-.44a1 1 0 0 1 1.01-1.01l1.1.02a1.01 1 4.6 0 0 1.01-.85l.35-2.34a1.01 1 3.1 0 0-1.04-1.15q-1.3.06-.93-.54.46-.74-.4-.62-1.25.18-.81-.34.51-.59-.26-.67-1.61-.19-.61-.39a.8.8 0 0 0 .54-1.17q-.46-.84.23-1.36a.41.41 0 0 0 0-.66q-.38-.27.19-.4a.81.8-7.2 0 0 .64-.82q-.03-.46.35-.77a.79.78-22.3 0 0 .28-.66c-.25-4.2 2.84-3.19 4.72-5.19q.97-1.03 1.52-2.41a.99.99 0 0 1 .74-.61q1.33-.26 2-1.52a.99.98 14.1 0 1 .89-.53h3.51a1.02 1.01-76.8 0 0 .91-.57q.36-.76 1.28-.34a1.07 1.04 52 0 0 .6.08q4.55-.83 9.16-.67a1 1 0 0 1 .97 1.05q-.1 1.88 1.67 2.64c1.69.72 3.17-.44 4.68 1.11a.98.96-23 0 0 .77.3l1.76-.09a.8.79-86.5 0 1 .82.94q-.21 1.23 2.15 1.1 2.97-.17 5.11 1.7a1 1 0 0 0 .65.24l2.5.01q2.74 0 .43 1.47-1.32.85-2.39 2.03Zm86-8.75.9.34c-.14 4.15.81 6.25 3.84 9.47q4.53 4.82 4.61 11.79a1.03 1.02-68.9 0 0 .31.71l1.65 1.59a1.02.97-17.3 0 0 .53.26q2.57.43 2.34 3.28a1.04 1.04 0 0 0 .29.79q1.59 1.58 1.46 3.68a1 .98-70.5 0 0 .41.88q3.09 2.2 3.4 4.41.98 6.96 3.3 13.55a.98.97 2.2 0 0 .53.57q2.18 1.01 2.5 3.44.12.92-.5 1.05a.63.63 0 0 0-.51.61l-.07 2.8a1 .98 18.1 0 0 .45.86q.52.34.5.96a1.01 1-72.2 0 0 .44.87q.72.47.75 1.49a1.05 1.05 0 0 0 .28.66c2.79 2.96.97 6.52 5.54 9.03a1.02 1 8.5 0 1 .49.65q.35 1.5 1.61 2.46.85 2.13.37 4.55l-.25 1.5-.25-.75q-.08-.86-.74-1.1-.35-.13-.86-.52-1.66-1.27-2.47-3.24a.99.99 0 0 0-.43-.49q-1.88-1.06-4.11-.77a1.02 1.01-29.1 0 1-.75-.21q-.84-.66-1.87-.98-.93-.3.03-.51.43-.09-.07-.15a1 1 0 0 1-.89-1.06q.09-1.32-.47-2.55a.21.1-19.1 0 1 .17-.17l.19-.06a.39.22 49.6 0 0-.1-.53l-2.97-2.76a.41.41 0 0 1 .14-.68q.94-.36-1.99-.71a1.01.99-63.4 0 0-.83.29l-2.82 2.86a.99.97-22.2 0 0-.29.67l-.05 1.61a1.01 1 20.7 0 0 .36.79q2.36 1.98.31 4.63a1 .98 67.5 0 0-.2.5c-.33 2.94-9.78 4.9-8.39.7a1.06.99-46 0 0 .01-.61q-.87-2.84.59-5.56a.67.65 44.5 0 0-.01-.62q-.31-.54.39-.8 2.25-.84 1.59-2.81-.28-.82.25-1.01a.4.4 0 0 0 .26-.45q-.52-3.44.47-6.71a1.01 1 35 0 0-.16-.9q-.63-.82-.68-1.88a1.01 1-82 0 0-.68-.91q-2.22-.74-4.66-.53a1.04 1.03-26.8 0 1-.74-.24l-4.41-3.8a1.08 1.03-79.7 0 1-.29-.44q-1.37-4.09-.49-9.01.4-2.24-1.59-3.29a1.1 1.1 0 0 0-.69-.09q-2.09.47-2.74-1.84-.03-.13-.1-.24-1.72-2.89-1.94-6.29a1.02 1 16.1 0 0-.43-.76l-.45-.31a.99.98-74.8 0 1-.42-.75l-.53-7.08a1.09 1.02-33.6 0 1 .14-.59q1.62-2.7 1.02-5.7-.48-2.44 1.21-4.36c1.43-1.62 3.68.24 5.29.33q5.71.33 4.32-5.5l-.18-3.31-.17-1Z"/><path fill="#010201" fill-opacity=".647" d="m169.69 28.09 9.54 8.58q.14.12.22.28 1.34 2.63 3.65 4.64c.68.59 1.35.43 1.21 1.68a1.02 1.01 20 0 0 .44.94q1.93 1.3 2.37 3.54a.98.98 0 0 0 .33.58c2.17 1.84 2.04 4.24 4.16 6.01a1.03 1.02 25.5 0 1 .34.95q-.11.64.51.72a.65.64 11.7 0 1 .54.81l-.17.59a.65.64-83.8 0 0 .65.82q.68-.04.56.76a1 1 0 0 0 .47.99q.63.39.54 1.15a1.02 1 18 0 0 .52 1q.57.31.49 1.01a.79.78 16 0 0 .46.82l.28.13a.8.8 0 0 1 .37 1.11q-.62 1.15.33 1.8a1 1 0 0 1 .43.97q-.13.85.54 1.1a.8.8 0 0 1 .53.75v1.42a1.02.98-68.2 0 0 .29.71c1.32 1.3.19 3.56 1 4.14a1.01.99-73.3 0 1 .42.8q.01 1.4.68 3.38.94 2.81 1.43 9.85a.41.4-.7 0 0 .4.38h.3a.21.21 0 0 1 .21.21l.11 13.24q-1.26-.96-1.61-2.46a1.02 1 8.5 0 0-.49-.65c-4.57-2.51-2.75-6.07-5.54-9.03a1.05 1.05 0 0 1-.28-.66q-.03-1.02-.75-1.49a1.01 1-72.2 0 1-.44-.87q.02-.62-.5-.96a1 .98 18.1 0 1-.45-.86l.07-2.8a.63.63 0 0 1 .51-.61q.62-.13.5-1.05-.32-2.43-2.5-3.44a.98.97 2.2 0 1-.53-.57q-2.32-6.59-3.3-13.55-.31-2.21-3.4-4.41a1 .98-70.5 0 1-.41-.88q.13-2.1-1.46-3.68a1.04 1.04 0 0 1-.29-.79q.23-2.85-2.34-3.28a1.02.97-17.3 0 1-.53-.26l-1.65-1.59a1.03 1.02-68.9 0 1-.31-.71q-.08-6.97-4.61-11.79c-3.03-3.22-3.98-5.32-3.84-9.47Z"/><path fill="#142515" fill-opacity=".663" d="m79.2 39.15-3.95 3.89q-.16.17-.31.26-.77.46-.61-.42c.27-1.5-3.79-1.05-4.88-.96-3.61.29-5.55-.66-7.81-3.16a1.01.98-68.6 0 1-.26-.62q-.15-3.29-3.12-3.26a.98.98 0 0 0-.91.61q-.25.57-.65.48a.43.41 35.3 0 0-.28.04l-1.84.98a.99.97-8.6 0 0-.51.68l-.16.76a1 .97 32.7 0 0 .19.82q1.04 1.35 1.01 3.07a.77.77 0 0 1-.34.64q-.59.41-.19 1.13a1 1 0 0 1-.78 1.49q-3.07.26-4.58 1.71c-3.16 3.03-3.6 6.89-5.06 10.79a.98.95-5.6 0 1-.44.52q-2.18 1.23-3.51 3.39a1.02.99-30.9 0 0-.15.56c.13 3.3-.98 7.39-.37 10.79a.97.92 52.7 0 1-.06.57q-.85 2.02-.17 4.11.85 2.6.54 3.47l-1.82 5.02q-.08.21-.05.44c.72 7.29 1.6 14.72 1.18 22.06q-.12 2 1.19 3.51a1.04 1.04 0 0 1 .24.69c-.1 3.23-.41 5.63 2.09 7.34a1.03.99 10.1 0 1 .38.52l2.44 7.7a1 .96 53 0 1-.1.82c-1.84 3.03.02 7.92.39 11.71q.3 3.02 3.08 3.86a.98.98 0 0 1 .65.61c1.12 3.05.84 6.53 3.22 9.69a1.02 1.01-54.8 0 1 .15.9q-.36 1.19.59 1.14a.81.8 83.4 0 1 .82.66l.48 2.66q.04.22.16.4c.93 1.34.14 4.7 1.62 4.78q-1.59.75-3.27 1.28c-3.47 1.09-6.14 2.53-9.9 2.72q4.43-.9 8.47-2.92a.64.64 0 0 0 .08-1.09q-.6-.43.42-.51a.98.98 0 0 0 .72-.39q1.55-2.07.67-2.95a.67.66 29.6 0 1-.17-.61q.11-.45-.31-.81a.97.97 0 0 0-.79-.23q-1.36.19-.48-.52.51-.42-.13-.57l-.27-.07a.81.81 0 0 1-.6-.65c-.51-3.17.21-6.09-3.58-7.58a1.01.99 12.7 0 1-.63-.98q.19-3.78-2.58-6.37a1.01 1 65.8 0 0-.71-.27l-2.9.09a.41.4-78.9 0 1-.38-.57q.13-.3-.05-.56a.51.51 0 0 1 0-.6q.48-.63.14-1.14a.8.79-45.8 0 1-.01-.87l.69-1.11a1.07.95-84.3 0 1 .38-.35q1.13-.59.62-.85a.33.32-58.5 0 1-.11-.49q.41-.54-.5-.76a.64.63 5.4 0 1-.49-.59q-.01-.27.13-.51a.81.8 49.5 0 0 .05-.71c-1.19-2.92 1.93-3.49 2.01-6.27a1.01 1 14.7 0 0-.53-.9q-.64-.35-.69-1.11a.64.63 1.7 0 0-.57-.59c-.53-.05-.43-1.57-.66-2.07-2.02-4.38-1.37-7.08-1.76-11.56a1 .97-66.6 0 0-.21-.55q-1.91-2.36-.6-5.2a1.04 1.02-37.4 0 0 .08-.56c-.64-4.49.57-7.69-1.36-11.94a1.05 1-52.8 0 1-.07-.61q.7-3.56-.54-6.82a1.02.99-41.2 0 1 .07-.84l2.19-3.9a.99.98-35.1 0 0 .12-.66c-.54-3.14-1.64-9.94-.21-12.6a1.03 1.01-34.5 0 0 .11-.57q-.4-4.21.11-7.12c.23-1.31 1.49-3.06 1.26-5.02a1 .99 62.6 0 1 .24-.77c2.82-3.24 5.92-4.61 6.16-9.9a.99.98 30.7 0 0-.14-.54c-1.01-1.77 1.54-2.91 2.45-4.25a.25.25 0 0 0-.03-.33l-.21-.22a.2.17-31.2 0 1 .1-.3q1.12-.4.81-1.61a1.04.99-37.1 0 1 .13-.8q.54-.81 1.05-1.62c1.07-1.69.91-3.34 3.83-3.03a1.01.98 26 0 0 .79-.26q1.13-1.04 1.82.35.65 1.32.39-.13-.13-.75.65.09.28.29.26.01l-.02-.26a.32.05 1.7 0 1 .32-.04q.74.02.71-.75a1 .99-.3 0 1 1.04-1.04l.93.05q.77.03-.01.27l-.22.06q-.24.08 0 .21.72.38 1.16 1.01.13.17.31.28 2.58 1.51 2.07 4.25a1 .99-66.1 0 0 .37.97q.67.52.79 1.48.19 1.41 3.28.71 3.96-.91 8.02-.35a.79.78 22.3 0 0 .75-.31q.51-.69 1.43.35Z"/><path d="M99.86 30.2q4.52-.67 7.45-.01 3.06.68 6.13 1.04 12.8 2.19 23.31 9.81c6.59 5.42 11.5 13.98 10.43 22.86a.98.97-59.2 0 0 .17.69q2.01 2.88-.04 6.01a.99.94-30.8 0 0-.16.56l.06 11.23a1 1 0 0 0 .62.91c8.2 3.42.05 21.85-1.78 27.72q-1.18 3.8-4.63 4.23a1 1 0 0 0-.83.7q-2.16 7.02-4.13 12.87-1.54 4.57-3.51 7.1-2.43 3.12-1.9 6.55c.19 1.19 1.03 1.98 1.22 3.09a1.7 1.56 81.8 0 0 1.74 1.42q4.2-.5 4.32 3.6 0 .08.02.17l1 4.93a.98.97 13.9 0 0 .34.56q.5.42.56 1.15a1.02 1-75.8 0 0 .41.71q4.53 3.35 5.57 3.91 6.13 3.31 17.06 7.24 2.59.92 3.65 2.84c-3.12 1.74-5.49 4.45-7.98 6.1-8.18 5.43-14.29 9.27-25.21 13.27-6.04 1.69-13.38 4.2-19.42 3.77a.95.94 31.3 0 0-.59.14c-2.26 1.39-13.39.89-16.38.89-2.8-.01-5.27-1.41-8.5-1.02q-.17.03-.35-.02l-6.13-1.45q-13.61-3.5-25.74-10.5-.1-.06-.37-.5-.09-.15-.28-.25-6.71-3.57-11.96-9.04a.98.98 0 0 0-.56-.29q-1.16-.18-2.06-.86a1.01 1 22.2 0 1-.39-.92l.03-.26a.4.39 6.3 0 1 .45-.35q1.26.15 2.04-.8c3.76-.19 6.43-1.63 9.9-2.72q1.68-.53 3.27-1.28l13.56-5.38a.99.98 87 0 0 .59-.66l3.21-11.57a.95.95 0 0 1 .38-.54q1.94-1.42 4.47-.76a1 .99 29.6 0 0 .95-.26q3.21-3.12 1.42-7.08l-.9-3.88c-.8-3.41-3.12-6.27-4.1-9.87-1.06-3.2-2.49-9.19-5.39-11.41-2.31-1.77-3.13-2.85-3.01-5.64a1.04 1.02 27.6 0 0-.21-.65q-.82-1.07-.81-2.34a1.03 1.01 26.6 0 0-.22-.63q-1.92-2.36-2.45-5.27c-.91-4.98-3.15-7.84-1.5-13.17.83-2.68 3.26-4.27 5.11-6.43a.98.92 68.7 0 0 .23-.57c.1-1.27-.74-2.12-.92-3.05q-.56-2.83-.28-5.7a1 .98 24.6 0 0-.32-.83c-.93-.86-.51-8.84-.49-10.52q.02-2.07.68-4.05 2.14-6.37 7.45-10.3.68-.5 1.09-2.4l3.95-3.89 3.59-2.65q7.66-5.21 17.07-6.3Z"/><path fill="#142515" fill-opacity=".663" d="M169.14 32.06q1.39 5.83-4.32 5.5c-1.61-.09-3.86-1.95-5.29-.33q-1.69 1.92-1.21 4.36.6 3-1.02 5.7a1.09 1.02-33.6 0 0-.14.59l.53 7.08a.99.98-74.8 0 0 .42.75l.45.31a1.02 1 16.1 0 1 .43.76q.22 3.4 1.94 6.29.07.11.1.24.65 2.31 2.74 1.84a1.1 1.1 0 0 1 .69.09q1.99 1.05 1.59 3.29-.88 4.92.49 9.01a1.08 1.03-79.7 0 0 .29.44l4.41 3.8a1.04 1.03-26.8 0 0 .74.24q2.44-.21 4.66.53a1.01 1-82 0 1 .68.91q.05 1.06.68 1.88a1.01 1 35 0 1 .16.9q-.99 3.27-.47 6.71a.4.4 0 0 1-.26.45q-.53.19-.25 1.01.66 1.97-1.59 2.81-.7.26-.39.8a.67.65 44.5 0 1 .01.62q-1.46 2.72-.59 5.56a1.06.99-46 0 1-.01.61c-1.39 4.2 8.06 2.24 8.39-.7a1 .98 67.5 0 1 .2-.5q2.05-2.65-.31-4.63a1.01 1 20.7 0 1-.36-.79l.05-1.61a.99.97-22.2 0 1 .29-.67l2.82-2.86a1.01.99-63.4 0 1 .83-.29q2.93.35 1.99.71a.41.41 0 0 0-.14.68l2.97 2.76a.39.22 49.6 0 1 .1.53l-.19.06a.21.1-19.1 0 0-.17.17q.56 1.23.47 2.55a1 1 0 0 0 .89 1.06q.5.06.07.15-.96.21-.03.51 1.03.32 1.87.98a1.02 1.01-29.1 0 0 .75.21q2.23-.29 4.11.77a.99.99 0 0 1 .43.49q.81 1.97 2.47 3.24.51.39.86.52.66.24.74 1.1-.48 1.84-1.46.38a.65.64 65.1 0 0-.7-.26q-.7.19-1.06-.9-.62-1.83-1.96-2.95a1.01 1-46.1 0 0-1.32.03l-2.08 1.9a1.03 1 74.3 0 0-.31.57q-.68 3.78-3.82 1.95a.65.64 49.7 0 0-.56-.05l-.24.1a.35.32-42.1 0 1-.25 0q-3.03-1.29-5.81.43a1.03.99-48.5 0 1-.9.07q-3.86-1.56-8.01-1.32a1 1 0 0 1-.95-.54q-1.12-2.15-3.58-1.96-2.18.16-2.4-1.7-.49-4.14 1.02-7.89.65-1.63 1.72-.24 1.03 1.34.52 3.2a.41.41 0 0 0 .17.44q.37.26.43-.27 1.34-1.27 1.37-3.25a.97.97 0 0 1 .41-.79c3.81-2.77 1.6-4.8 2.19-8.38.19-1.13.49-1.99.19-3.08q-.78-2.86-3.08-1.14a.99.98-58.8 0 1-.76.19q-2.07-.34-3.68-1.84-.19-.18-.27-.43c-.72-2.27-2.81-3.46-3.94-4.71q-1.68-1.85-3.53-3.53a1 .98-55.4 0 1-.21-1.2q1.72-3.31-.84-6.15-.17-.19-.23-.43l-2.73-10.96a.96.94-76.5 0 0-.3-.5l-.84-.75a.64.64 0 0 1-.16-.74q.22-.49-.27-.77-.25-.14-.23.22l.01.25q.02.45-.22.19c-1.64-1.85-4.63-5.61-.37-6.84a.65.63 62.4 0 1 .68.22q.43.53 1.16.07a1.04 1.03 76.3 0 0 .46-.76l.71-7.43a.99.98-20 0 1 .3-.63c3.83-3.64 11.13 4.42 11.16-5.01Z"/><path fill="#242627" fill-opacity=".655" d="M75.25 43.04q-.41 1.9-1.09 2.4-5.31 3.93-7.45 10.3-.66 1.98-.68 4.05c-.02 1.68-.44 9.66.49 10.52a1 .98 24.6 0 1 .32.83q-.28 2.87.28 5.7c.18.93 1.02 1.78.92 3.05a.98.92 68.7 0 1-.23.57c-1.85 2.16-4.28 3.75-5.11 6.43-1.65 5.33.59 8.19 1.5 13.17q.53 2.91 2.45 5.27a1.03 1.01 26.6 0 1 .22.63q-.01 1.27.81 2.34a1.04 1.02 27.6 0 1 .21.65c-.12 2.79.7 3.87 3.01 5.64 2.9 2.22 4.33 8.21 5.39 11.41-.06.95-2.32 3.73-2.78 2.22q-.06-.18-.17-.33l-3.04-3.87q-.14-.17-.34-.27-.89-.44-.46-1.29.44-.86-.52-.74-.26.04-.52.19-.33.19-.32-.19l.02-.35a.52.51-86.4 0 0-.46-.53q-3.8-.4-5.17 3.65a1 .98 4.6 0 1-.8.66q-1.48.22-2.57 1.3a.99.98-66.5 0 1-.72.29q-3.94-.03-7.61 1.33-2.28.85-1.06 2.9.74 1.24.73 2.56c-.02 1.8-2.44 4.47-.1 5.89q.42.24 2.89.67 4.57.77 2.17 5.44a1.05 1.03-81.6 0 1-.7.53q-.71.14-.27.76a1 .96 33.5 0 1 .17.76q-.12.71.57.92a1 1 0 0 1 .66.67q1.23 4.03 5.61 2.08a.33.33 0 0 1 .32.04l.23.16a.64.03-63.8 0 0 .31-.57q.73-1.53 2.69-.76a1 .99-83.6 0 1 .63.8q.28 2.17 2.04 1.75a1 1 0 0 0 .64-1.45q-.52-.97-.48-2.07a1.01 1.01 0 0 1 .61-.88c2.29-.99 3.34-4.01 5.66-6.03a1 1 0 0 0 .34-.68q.11-1.33.72-.91a.64.63 51.5 0 0 .57.07l2.95-1.02a1 .99 71.7 0 1 1.28.65q.45 1.44 1.28-.6 1.79 3.96-1.42 7.08a1 .99 29.6 0 1-.95.26q-2.53-.66-4.47.76a.95.95 0 0 0-.38.54l-3.21 11.57a.99.98 87 0 1-.59.66L56.71 166c-1.48-.08-.69-3.44-1.62-4.78q-.12-.18-.16-.4l-.48-2.66a.81.8 83.4 0 0-.82-.66q-.95.05-.59-1.14a1.02 1.01-54.8 0 0-.15-.9c-2.38-3.16-2.1-6.64-3.22-9.69a.98.98 0 0 0-.65-.61q-2.78-.84-3.08-3.86c-.37-3.79-2.23-8.68-.39-11.71a1 .96 53 0 0 .1-.82l-2.44-7.7a1.03.99 10.1 0 0-.38-.52c-2.5-1.71-2.19-4.11-2.09-7.34a1.04 1.04 0 0 0-.24-.69q-1.31-1.51-1.19-3.51c.42-7.34-.46-14.77-1.18-22.06q-.03-.23.05-.44L40 81.49q.31-.87-.54-3.47-.68-2.09.17-4.11a.97.92 52.7 0 0 .06-.57c-.61-3.4.5-7.49.37-10.79a1.02.99-30.9 0 1 .15-.56q1.33-2.16 3.51-3.39a.98.95-5.6 0 0 .44-.52c1.46-3.9 1.9-7.76 5.06-10.79q1.51-1.45 4.58-1.71a1 1 0 0 0 .78-1.49q-.4-.72.19-1.13a.77.77 0 0 0 .34-.64q.03-1.72-1.01-3.07a1 .97 32.7 0 1-.19-.82l.16-.76a.99.97-8.6 0 1 .51-.68l1.84-.98a.43.41 35.3 0 1 .28-.04q.4.09.65-.48a.98.98 0 0 1 .91-.61q2.97-.03 3.12 3.26a1.01.98-68.6 0 0 .26.62c2.26 2.5 4.2 3.45 7.81 3.16 1.09-.09 5.15-.54 4.88.96q-.16.88.61.42.15-.09.31-.26Zm127.25 80.75-.67 4.6q-.02.15-.08.28c-1.43 3.05-1.92 6.7-2.92 9.33q-8.82 23.39-27.01 40.65c-.53.51-.33 1.37-1.7 1.24a1.03.99-61.7 0 0-.75.24l-1.45 1.26q-2.14-.47-1.3-3.23a1.03 1-55.9 0 0-.16-.89q-.98-1.32-.78-2.81a1.01 1.01 0 0 1 .67-.81q1.9-.65.59-1.56-1.06-1.92-3.65-2.84-10.93-3.93-17.06-7.24-1.04-.56-5.57-3.91a1.02 1-75.8 0 1-.41-.71q-.06-.73-.56-1.15a.98.97 13.9 0 1-.34-.56l-1-4.93q-.02-.09-.02-.17-.12-4.1-4.32-3.6a1.7 1.56 81.8 0 1-1.74-1.42c-.19-1.11-1.03-1.9-1.22-3.09q-.53-3.43 1.9-6.55 1.97-2.53 3.51-7.1 1.97-5.85 4.13-12.87a1 1 0 0 1 .83-.7q3.45-.43 4.63-4.23c1.83-5.87 9.98-24.3 1.78-27.72a1 1 0 0 1-.62-.91l-.06-11.23a.99.94-30.8 0 1 .16-.56q2.05-3.13.04-6.01a.98.97-59.2 0 1-.17-.69c1.07-8.88-3.84-17.44-10.43-22.86q2.25-1.55 4.85-1.18c1.99.29 3.17 2.11 4.82 3.25 2.04 1.39 3.48 3.74 3.71 5.83q.7 6.26 1.59 9.01.41 1.26 2.26 2.21a1.01 1.01 0 0 1 .5.61q.21.72.94.59a.8.8 0 0 1 .86.45q2.71 5.73 2.16 12.1a1 .98 31.5 0 0 .16.63c.95 1.49 3.09 5 5.06 4.82a1.02 1.01 68.9 0 1 .9.4q2.54 3.45 1.16 7.37a.97.97 0 0 0 .15.94l.17.23a.51.5-56.8 0 1 .09.45q-.31 1.1.38 2.04a1 .97-65.9 0 1 .19.52c.22 2.97.61 5.38.11 8.56-.48 3.07-.99 8.66 1.76 11.06.61.54 1.32.4 2.18 1.12a1 .98 16.7 0 1 .35.63q.21 1.59 1.6 1.63.21.01.4-.07 1.81-.74 3.05-2.25a1.03 1.02 21.3 0 1 .85-.37l3.96.29a.98.98 0 0 1 .83.58q.77 1.66 2.77 1.17.14-.03.27-.1 3.64-2.13 5.31 1.9a1.05 1.03-87.5 0 0 .44.49q1.45.8 2.01 2.17a.99.99 0 0 0 .92.62l2.58.01a.41.41 0 0 1 .39.51q-.09.4.31.5a.53.53 0 0 1 .38.45q.17 1.86 1.06.82a.79.79 0 0 1 1.26.06q1.2 1.73 3.01 2.7Z"/><path fill="#282e26" fill-opacity=".498" d="M208 112.31v4.25q-1.15 5.83-2.5 11.64-5.61 24.09-21.01 42.68c-17.44 21.05-41.13 32.9-68.05 37.12h-24.5L86 206.77c-.71-1.6.41-1.82 1.6-1.69q.18.02.34-.02 1.17-.28.17-.93-1.23-.8 2.39-.42l.29.05q11.74.41 23.59.21c2.81-.05 5.24-1.42 8.37-1.25q.25.02.48-.09 1.5-.7 4.55-1.13 5.19-.74 17.18-5.75l8.89-4.42a1.01 1.01 0 0 0 .45-.45c.56-1.16 3.66-1.65 4.91-3.22a1 .96 11.6 0 1 .55-.35q2.81-.67 4.4-3.15a1.02.99-80.3 0 1 .57-.42q2.21-.62 3.19-2.35l1.45-1.26a1.03.99-61.7 0 1 .75-.24c1.37.13 1.17-.73 1.7-1.24q18.19-17.26 27.01-40.65c1-2.63 1.49-6.28 2.92-9.33q.06-.13.08-.28l.67-4.6q1.62-6.81 1.46-13.79l.25-1.5q1.59 1.01 2.26.4.65-.6.84.27l.69 3.14Z"/><path fill="#302c2d" fill-opacity=".655" d="M76.29 126c.98 3.6 3.3 6.46 4.1 9.87l.9 3.88q-.83 2.04-1.28.6a1 .99 71.7 0 0-1.28-.65l-2.95 1.02a.64.63 51.5 0 1-.57-.07q-.61-.42-.72.91a1 1 0 0 1-.34.68c-2.32 2.02-3.37 5.04-5.66 6.03a1.01 1.01 0 0 0-.61.88q-.04 1.1.48 2.07a1 1 0 0 1-.64 1.45q-1.76.42-2.04-1.75a1 .99-83.6 0 0-.63-.8q-1.96-.77-2.69.76a.64.03-63.8 0 1-.31.57l-.23-.16a.33.33 0 0 0-.32-.04q-4.38 1.95-5.61-2.08a1 1 0 0 0-.66-.67q-.69-.21-.57-.92a1 .96 33.5 0 0-.17-.76q-.44-.62.27-.76a1.05 1.03-81.6 0 0 .7-.53q2.4-4.67-2.17-5.44-2.47-.43-2.89-.67c-2.34-1.42.08-4.09.1-5.89q.01-1.32-.73-2.56-1.22-2.05 1.06-2.9 3.67-1.36 7.61-1.33a.99.98-66.5 0 0 .72-.29q1.09-1.08 2.57-1.3a1 .98 4.6 0 0 .8-.66q1.37-4.05 5.17-3.65a.52.51-86.4 0 1 .46.53l-.02.35q-.01.38.32.19.26-.15.52-.19.96-.12.52.74-.43.85.46 1.29.2.1.34.27l3.04 3.87q.11.15.17.33c.46 1.51 2.72-1.27 2.78-2.22Z"/><path fill="#142515" fill-opacity=".663" d="M166.94 172.09q1.31.91-.59 1.56a1.01 1.01 0 0 0-.67.81q-.2 1.49.78 2.81a1.03 1-55.9 0 1 .16.89q-.84 2.76 1.3 3.23-.98 1.73-3.19 2.35a1.02.99-80.3 0 0-.57.42q-1.59 2.48-4.4 3.15a1 .96 11.6 0 0-.55.35c-1.25 1.57-4.35 2.06-4.91 3.22a1.01 1.01 0 0 1-.45.45l-8.89 4.42-2.56.56a.98.96 52.2 0 1-.67-.09l-4.14-2.12a.95.94-87 0 1-.48-.54l-.17-.47a1 .99-29 0 1 .33-1.14q1.61-1.21-.74-.34-.21.08-.43.06l-2.35-.21c10.92-4 17.03-7.84 25.21-13.27 2.49-1.65 4.86-4.36 7.98-6.1Z"/><path fill="#0b210e" fill-opacity=".514" d="m49.5 188.71 7.76 4.05q.03.01.06.03 9.97 6.12 21.39 8.49a.99.98 81.7 0 1 .69.52l.14.27a.22.2-9.6 0 0 .17.11c3.31.24 7.76.08 10.79 1.53q-3.62-.38-2.39.42 1 .65-.17.93-.16.04-.34.02c-1.19-.13-2.31.09-1.6 1.69q-22.7-3.5-41.29-16.77l.1-.34a.81.8-77.8 0 1 .86-.56q1.96.22 3.83-.39Z"/><path fill="#242627" fill-opacity=".655" d="M144.96 195.75q-11.99 5.01-17.18 5.75-3.05.43-4.55 1.13-.23.11-.48.09c-3.13-.17-5.56 1.2-8.37 1.25q-11.85.2-23.59-.21.48-1 .5-2.09a.64.64 0 0 0-.63-.66h-.25a1 .99 78.3 0 1-.89-.59q-1.2-2.65-4.11-3.07a1.02.98-17.2 0 1-.56-.28q-1.24-1.21-2.65-2.26-1.02.56.18-1.04l6.13 1.45q.18.05.35.02c3.23-.39 5.7 1.01 8.5 1.02 2.99 0 14.12.5 16.38-.89a.95.94 31.3 0 1 .59-.14c6.04.43 13.38-2.08 19.42-3.77l2.35.21q.22.02.43-.06 2.35-.87.74.34a1 .99-29 0 0-.33 1.14l.17.47a.95.94-87 0 0 .48.54l4.14 2.12a.98.96 52.2 0 0 .67.09l2.56-.56Z"/></svg>